<?xml version="1.0" encoding="UTF-8" standalone="no"?>
<!-- Created with Inkscape (http://www.inkscape.org/) -->

<svg
   xmlns:dc="http://purl.org/dc/elements/1.1/"
   xmlns:cc="http://creativecommons.org/ns#"
   xmlns:rdf="http://www.w3.org/1999/02/22-rdf-syntax-ns#"
   xmlns:svg="http://www.w3.org/2000/svg"
   xmlns="http://www.w3.org/2000/svg"
   xmlns:sodipodi="http://sodipodi.sourceforge.net/DTD/sodipodi-0.dtd"
   xmlns:inkscape="http://www.inkscape.org/namespaces/inkscape"
   width="192.36174"
   height="179.99991"
   id="svg2"
   version="1.1"
   inkscape:version="0.48.4 r9939"
   sodipodi:docname="unidos_venceremos.svg">
   
  <defs
     id="defs4" />
  <sodipodi:namedview
     id="base"
     pagecolor="#ffffff"
     bordercolor="#666666"
     borderopacity="1.0"
     inkscape:pageopacity="0.0"
     inkscape:pageshadow="2"
     inkscape:zoom="1.7471303"
     inkscape:cx="110.68344"
     inkscape:cy="86.087116"
     inkscape:document-units="px"
     inkscape:current-layer="layer1"
     showgrid="false"
     inkscape:snap-bbox="true"
     inkscape:snap-bbox-midpoints="true"
     inkscape:window-width="1280"
     inkscape:window-height="749"
     inkscape:window-x="0"
     inkscape:window-y="26"
     inkscape:window-maximized="1"
     fit-margin-top="0"
     fit-margin-left="0"
     fit-margin-right="0"
     fit-margin-bottom="0">
    <inkscape:grid
       type="xygrid"
       id="grid3028"
       empspacing="5"
       visible="true"
       enabled="true"
       snapvisiblegridlinesonly="true"
       originx="486.18087px"
       originy="-700.00006px" />
  </sodipodi:namedview>
  <metadata
     id="metadata7">
    <rdf:RDF>
      <cc:Work
         rdf:about="">
        <dc:format>image/svg+xml</dc:format>
        <dc:type
           rdf:resource="http://purl.org/dc/dcmitype/StillImage" />
        <dc:title></dc:title>
      </cc:Work>
    </rdf:RDF>
  </metadata>
  <g
     inkscape:label="Layer 1"
     inkscape:groupmode="layer"
     id="layer1"
     transform="translate(486.18087,-172.3622)">
    <path
       style="font-size:medium;font-style:normal;font-variant:normal;font-weight:normal;font-stretch:normal;text-indent:0;text-align:start;text-decoration:none;line-height:normal;letter-spacing:normal;word-spacing:normal;text-transform:none;direction:ltr;block-progression:tb;writing-mode:lr-tb;text-anchor:start;baseline-shift:baseline;color:#000000;fill:#000000;fill-opacity:1;stroke:none;stroke-width:5.33333445;marker:none;visibility:visible;display:inline;overflow:visible;enable-background:accumulate;font-family:Sans;-inkscape-font-specification:Sans"
       d="m -421.82035,187.69532 c -12.29608,-0.006 -24.60874,4.67123 -33.96875,14.03125 -18.72004,18.72004 -18.68879,49.18621 0.0313,67.90625 1.73498,1.73498 3.58268,3.27966 5.5,4.6875 -3.42647,5.05091 -2.90194,12.03556 1.5625,16.5 2.8337,2.8337 6.68017,4.09538 10.40625,3.75 -0.34538,3.72608 0.9163,7.57255 3.75,10.40625 2.8337,2.8337 6.68017,4.06413 10.40625,3.71875 -0.34538,3.72608 0.88504,7.6038 3.71875,10.4375 2.8337,2.8337 6.68017,4.06413 10.40625,3.71875 -0.34536,3.72607 0.91631,7.57256 3.75,10.40625 5.05169,5.05169 13.32331,5.05169 18.375,0 l 14.15625,-14.125 -0.0313,-0.0313 c 0.11469,-0.10666 0.23215,-0.2009 0.34375,-0.3125 2.04399,-2.04399 3.23507,-4.63889 3.625,-7.3125 4.62032,1.70382 10.02713,0.72287 13.71875,-2.96875 2.8337,-2.8337 4.09538,-6.68017 3.75,-10.40625 3.72608,0.34538 7.57255,-0.88505 10.40625,-3.71875 2.84158,-2.84158 4.07395,-6.70176 3.71875,-10.4375 3.72608,0.34538 7.57255,-0.88505 10.40625,-3.71875 2.91993,-2.91993 4.17432,-6.91939 3.71875,-10.75 18.56382,-18.73284 18.51161,-49.08214 -0.15625,-67.75 -18.03414,-18.03414 -46.97966,-18.7111 -65.8125,-2 -9.05004,-8.00912 -20.40758,-12.02614 -31.78125,-12.03125 z m 0,5.96875 c 9.80482,0 19.58674,3.43891 27.46875,10.28125 l -33.125,33.15625 -2.125,2.125 2.125,2.125 c 3.88908,3.88908 8.73255,6.84025 13.90625,7.875 5.17371,1.03474 10.8511,-0.10111 15.09375,-4.34375 l 22.625,-22.625 43.84375,43.84375 c 2.7588,2.7588 2.7588,7.1162 0,9.875 -2.7588,2.7588 -7.14745,2.7588 -9.90625,0 l -31.8125,-31.8125 -4.25,4.25 31.8125,31.8125 c 2.7588,2.7588 2.7588,7.14746 0,9.90625 -2.7588,2.7588 -7.14745,2.7588 -9.90625,0 l -31.8125,-31.8125 -4.25,4.21875 31.84375,31.84375 c 0.15088,0.15087 0.27206,0.27743 0.40625,0.4375 0.0198,0.024 0.0428,0.0697 0.0625,0.0937 0.0138,0.0166 0.0181,0.0456 0.0313,0.0625 0.01,0.018 0.0188,0.016 0.0313,0.0313 0.21161,0.26874 0.42731,0.55491 0.59375,0.84375 0.0423,0.0733 0.0856,0.14444 0.125,0.21875 0.14693,0.27873 0.26879,0.58341 0.375,0.875 0.0488,0.13293 0.0846,0.24005 0.125,0.375 0.017,0.0572 0.0469,0.13006 0.0625,0.1875 0.0433,0.15954 0.0933,0.33844 0.125,0.5 0.0425,0.22056 0.0729,0.43329 0.0937,0.65625 0.0374,0.38568 0.0275,0.76993 0,1.15625 -0.0281,0.39505 -0.12285,0.76928 -0.21875,1.15625 -0.0953,0.38182 -0.21411,0.75956 -0.375,1.125 -0.039,0.0901 -0.0821,0.19246 -0.125,0.28125 -0.13296,0.26999 -0.26777,0.52582 -0.4375,0.78125 -0.0177,0.0276 -0.0441,0.0668 -0.0625,0.0937 -0.26611,0.34488 -0.50935,0.67151 -0.8125,1 -0.0224,0.0224 -0.0702,0.0731 -0.0937,0.0937 -0.0428,0.0456 -0.081,0.0797 -0.125,0.125 -0.0322,0.0294 -0.0607,0.0344 -0.0937,0.0625 -0.1438,0.12852 -0.31777,0.22911 -0.46875,0.34375 -2.75501,2.09161 -6.60208,1.89792 -9.125,-0.625 l -1.15625,-1.15625 c -0.55555,-0.9692 -1.23746,-1.8937 -2.0625,-2.71875 -2.21011,-2.21011 -5.03193,-3.44249 -7.9375,-3.71875 1.6435,-4.59412 0.66005,-9.9337 -3,-13.59375 -4.836,-4.836 -12.63,-5.04805 -17.71875,-0.625 -0.50444,-2.36966 -1.67065,-4.6394 -3.5,-6.46875 -3.75719,-3.75719 -9.29594,-4.70663 -13.96875,-2.875 -0.31645,-2.82892 -1.53258,-5.56383 -3.6875,-7.71875 -5.05169,-5.05169 -13.35456,-5.05169 -18.40625,0 l -4.53125,4.53125 c -1.87618,-1.34079 -3.6557,-2.8432 -5.34375,-4.53125 -16.42715,-16.42715 -16.42715,-42.9791 0,-59.40625 8.21357,-8.21357 18.94504,-12.3125 29.6875,-12.3125 z m 63.625,0 c 10.74246,0 21.50518,4.09893 29.71875,12.3125 15.71025,15.71025 16.34079,40.64023 2,57.15625 l -1.3125,-1.28125 -45.9375,-45.96875 -2.125,-2.125 -2.125,2.125 -24.75,24.75 c -2.82842,2.82843 -6.02237,3.42053 -9.6875,2.6875 -2.82775,-0.56555 -5.74209,-2.24883 -8.4375,-4.375 l 30.75,-30.75 c 0.0285,0.0329 0.0653,0.0608 0.0937,0.0937 0.33839,-0.39192 0.67854,-0.80398 1.03125,-1.1875 l 1.09375,-1.125 c 0.68446,-0.68447 1.37562,-1.34127 2.09375,-1.96875 7.89953,-6.90223 17.74611,-10.34375 27.59375,-10.34375 z m -74.21875,73.875 c 1.78517,0 3.5581,0.71435 4.9375,2.09375 2.51674,2.51674 2.73135,6.37123 0.65625,9.125 -0.0525,-0.23532 -0.1218,-0.45495 -0.1875,-0.6875 -0.25189,0.87134 -0.46875,1.4375 -0.46875,1.4375 l -7.0625,7.09375 c 0,0 -0.59742,0.21685 -1.46875,0.46875 0.22448,0.0634 0.46044,0.13639 0.6875,0.1875 -2.75305,2.06604 -6.61168,1.85707 -9.125,-0.65625 -2.51956,-2.51957 -2.73885,-6.4019 -0.65625,-9.15625 0.0527,0.23646 0.0902,0.48507 0.15625,0.71875 0.25189,-0.87133 0.5,-1.46875 0.5,-1.46875 l 7.0625,-7.0625 c 0,0 0.59742,-0.24811 1.46875,-0.5 -0.23368,-0.066 -0.48229,-0.10357 -0.71875,-0.15625 1.24642,-0.94244 2.74317,-1.4375 4.21875,-1.4375 z m 17.65625,10.625 c 1.78517,0 3.58935,0.6831 4.96875,2.0625 2.7588,2.7588 2.7588,7.14746 0,9.90625 l -2.875,2.875 -3.78125,3.75 -1.09375,1.09375 -2.875,2.875 c -2.7588,2.75879 -7.14745,2.75879 -9.90625,0 -2.7588,-2.7588 -2.7588,-7.14745 0,-9.90625 l 2.875,-2.84375 0,-0.0313 3.5625,-3.5625 c 0.12691,-0.11042 0.25156,-0.22762 0.375,-0.34375 l 0.1875,-0.1875 c 0.0317,-0.031 0.0623,-0.0623 0.0937,-0.0937 0.0107,-0.0107 0.0206,-0.0205 0.0313,-0.0313 l 0.625,-0.625 2.875,-2.875 c 1.3794,-1.3794 3.15233,-2.0625 4.9375,-2.0625 z m 21.21875,7.0625 c 1.78517,0 3.5581,0.6831 4.9375,2.0625 2.7588,2.7588 2.7588,7.14745 0,9.90625 l -3.0625,3.0625 c -0.0432,0.042 -0.0823,0.0823 -0.125,0.125 -0.20199,0.20199 -0.40792,0.41305 -0.59375,0.625 l -3.9375,3.9375 -2.21875,2.1875 -7.71875,7.75 c -2.7588,2.7588 -7.14746,2.7588 -9.90625,0 -2.7588,-2.7588 -2.7588,-7.14745 0,-9.90625 l 7.71875,-7.71875 2.875,-2.875 7.09375,-7.09375 c 1.37939,-1.3794 3.15233,-2.0625 4.9375,-2.0625 z m 10.9375,17.34375 c 1.78517,0 3.5581,0.6831 4.9375,2.0625 2.7588,2.75879 2.7588,7.14745 0,9.90625 l -6.71875,6.75 -1,0.96875 -6.75,6.75 c -2.7588,2.7588 -7.1162,2.7588 -9.875,0 -2.7588,-2.7588 -2.7588,-7.1162 0,-9.875 l 6.71875,-6.75 1,-1 6.9375,-6.9375 c 1.34858,-1.24706 3.05262,-1.875 4.75,-1.875 z"
       id="path3847"
       inkscape:connector-curvature="0" />
  </g>
</svg>
